<svg width="44" height="44" viewBox="0 0 44 44" fill="none" xmlns="http://www.w3.org/2000/svg">
<path d="M21.9563 4.23963e-05C9.81852 0.0237044 -0.068758 10.015 0.000360192 22.184C0.0610493 33.5494 8.70588 42.8799 19.7648 43.9987C19.8001 44.0023 19.8357 43.9984 19.8693 43.9872C19.903 43.9761 19.934 43.958 19.9602 43.9341C19.9864 43.9102 20.0073 43.881 20.0216 43.8485C20.0359 43.8159 20.0431 43.7807 20.043 43.7452V22.0564H18.3386C18.2715 22.0564 18.2072 22.0297 18.1598 21.9822C18.1124 21.9346 18.0857 21.8701 18.0857 21.8029V18.3837C18.0857 18.3165 18.1124 18.252 18.1598 18.2045C18.2072 18.1569 18.2715 18.1302 18.3386 18.1302H23.7045C23.7716 18.1302 23.8359 18.1569 23.8833 18.2045C23.9308 18.252 23.9574 18.3165 23.9574 18.3837V43.7452C23.9572 43.7807 23.9645 43.8158 23.9787 43.8482C23.9929 43.8807 24.0138 43.9098 24.0399 43.9337C24.066 43.9576 24.0969 43.9757 24.1304 43.9869C24.164 43.9981 24.1995 44.0022 24.2347 43.9987C35.3349 42.8756 44 33.481 44 22.0564C44 9.86034 34.1262 -0.0236196 21.9563 4.23963e-05ZM28.2141 39.0846C28.1759 39.0982 28.1351 39.1023 28.095 39.0967C28.0549 39.0911 28.0168 39.076 27.9837 39.0526C27.9507 39.0291 27.9238 38.9981 27.9052 38.9621C27.8866 38.926 27.8769 38.886 27.8769 38.8455V35.2252C27.8771 35.1532 27.8976 35.0828 27.9361 35.0221C27.9746 34.9613 28.0295 34.9128 28.0944 34.8821C30.5102 33.7258 32.5504 31.9079 33.9793 29.6384C35.4082 27.3688 36.1675 24.7403 36.1694 22.0564C36.1694 14.1491 29.6925 7.73076 21.7793 7.85245C14.2522 7.96738 8.07792 14.0511 7.83769 21.5942C7.74986 24.3556 8.4663 27.0829 9.89945 29.4427C11.3326 31.8025 13.4204 33.6926 15.9077 34.8821C15.9727 34.9127 16.0277 34.9613 16.0663 35.022C16.105 35.0827 16.1256 35.1532 16.126 35.2252V38.8463C16.126 38.8869 16.1163 38.9269 16.0977 38.9629C16.0791 38.9989 16.0522 39.03 16.0192 39.0534C15.9861 39.0768 15.948 39.092 15.9079 39.0976C15.8678 39.1031 15.827 39.099 15.7888 39.0855C8.81883 36.5224 3.84485 29.7719 3.9165 21.8874C4.005 12.0381 12.0303 4.0023 21.8577 3.92625C31.8942 3.8485 40.0839 12.0119 40.0839 22.0564C40.0839 29.8674 35.1318 36.5401 28.2141 39.0846Z" fill="#051B2C"/>
</svg>
